<?xml version="1.0" encoding="UTF-8"?>
<!DOCTYPE svg PUBLIC "-//W3C//DTD SVG 1.1//EN" "http://www.w3.org/Graphics/SVG/1.1/DTD/svg11.dtd">
<!-- Creator: CorelDRAW 2019 (64-Bit) -->
<svg xmlns="http://www.w3.org/2000/svg" xml:space="preserve" width="101.6mm" height="25.7446mm" version="1.1" style="shape-rendering:geometricPrecision; text-rendering:geometricPrecision; image-rendering:optimizeQuality; fill-rule:evenodd; clip-rule:evenodd"
viewBox="0 0 10160 2574.46"
 xmlns:xlink="http://www.w3.org/1999/xlink"
 xmlns:xodm="http://www.corel.com/coreldraw/odm/2003">
 <defs>
  <style type="text/css">
   <![CDATA[
    .str5 {stroke:black;stroke-width:52.92;stroke-miterlimit:22.9256}
    .str11 {stroke:#373435;stroke-width:7.06;stroke-miterlimit:22.9256}
    .str9 {stroke:#F1D72C;stroke-width:35.28;stroke-miterlimit:22.9256}
    .str8 {stroke:#FCDC23;stroke-width:35.28;stroke-miterlimit:22.9256}
    .str3 {stroke:#373435;stroke-width:20;stroke-miterlimit:22.9256}
    .str7 {stroke:black;stroke-width:20;stroke-miterlimit:22.9256}
    .str12 {stroke:#E19549;stroke-width:20;stroke-miterlimit:22.9256}
    .str10 {stroke:#F1D72C;stroke-width:20;stroke-miterlimit:22.9256}
    .str0 {stroke:#FFFEF7;stroke-width:104.78;stroke-miterlimit:22.9256}
    .str1 {stroke:#CC7621;stroke-width:7.62;stroke-miterlimit:22.9256}
    .str2 {stroke:#E19549;stroke-width:7.62;stroke-miterlimit:22.9256}
    .str4 {stroke:#373435;stroke-width:20;stroke-linejoin:bevel;stroke-miterlimit:22.9256}
    .str6 {stroke:black;stroke-width:20;stroke-linejoin:bevel;stroke-miterlimit:22.9256}
    .fil1 {fill:none}
    .fil14 {fill:#FEFEFE}
    .fil6 {fill:#373435}
    .fil10 {fill:#282829}
    .fil9 {fill:black}
    .fil0 {fill:#0066BB}
    .fil15 {fill:#E19549}
    .fil13 {fill:#F1D72C}
    .fil8 {fill:#FEFEFE}
    .fil12 {fill:white}
    .fil7 {fill:#FEFEFE;fill-rule:nonzero}
    .fil5 {fill:#373435;fill-rule:nonzero}
    .fil2 {fill:#28BB25;fill-rule:nonzero}
    .fil4 {fill:#F1D72C;fill-rule:nonzero}
    .fil3 {fill:#FEFEFE;fill-rule:nonzero}
    .fil11 {fill:white;fill-rule:nonzero}
   ]]>
  </style>
 </defs>
 <g id="Capa_x0020_1">
  <metadata id="CorelCorpID_0Corel-Layer"/>
  <g id="_2421169784976">
   <rect class="fil0" x="-0.01" y="8.16" width="10160" height="2574.48"/>
   <g>
    <path class="fil1 str0" d="M8059.33 1577.61c-200.57,-76.43 -704.49,-181.97 -694.1,146.31 4.12,131.02 114.67,260.5 100.25,379.25 -18.72,154.08 -180.2,277.52 -726.41,300.88 -650.42,27.82 -1830.44,-54.15 -3930.37,-343.15"/>
    <path class="fil2" d="M4010.59 1579.12l-73.51 74.17 -453.16 -378.75 453.16 -378.76 73.51 74.87 -367.71 302.5 367.71 305.97zm3762.96 -249.3l-403.65 0 0 -110.58 403.65 0 0 110.58zm1590.61 -641.39l-463.09 1098.95 -111.97 0 463.09 -1098.95 111.97 0zm248.59 282.22l73.03 -74.87 453.63 378.76 -453.63 378.75 -73.03 -74.17 367.69 -303.21 -367.69 -305.26z"/>
    <path class="fil3 str1" d="M4742.99 760.3l0 612.84c0,37.78 -5.52,73.73 -16.82,107.59 -11.28,34.11 -28.33,63.59 -51.36,88.93 -22.81,25.11 -51.61,45.16 -86.18,59.91 -34.56,14.97 -75.33,22.35 -122.1,22.35 -17.51,0 -35.48,-1.16 -53.69,-3.69 -18.2,-2.53 -35.7,-5.99 -52.52,-10.37 -16.82,-4.15 -32.72,-9.45 -47.46,-15.67 -14.97,-6 -27.64,-12.67 -38.48,-20.04l0 -120.26c27.88,20.03 58.76,35.94 92.85,47.46 33.87,11.74 67.51,17.51 100.91,17.51 49.08,0 86.86,-14.98 113.36,-44.94 26.48,-29.94 39.85,-73.02 39.85,-129.24l0 -508.7 -335.9 0 0 -103.68 457.54 0zm878.94 431.3c0,42.16 -3.23,82.7 -9.68,121.41 -6.68,38.71 -17.04,74.64 -31.56,107.82 -14.28,33.4 -32.95,63.59 -55.98,90.78 -23.04,27.18 -51.15,50.45 -84.33,69.81 -33.4,19.35 -72.12,34.32 -116.12,44.91 -44.22,10.6 -94.22,15.91 -150.66,15.91l-188.93 0 0 -881.94 227.4 0c137.78,0 240.52,35.5 308.26,106.22 67.72,70.96 101.6,179.24 101.6,325.08zm-125.79 8.53c0,-62.44 -5.77,-115.43 -17.51,-158.52 -11.75,-43.31 -29.5,-78.09 -53.45,-104.82 -23.97,-26.5 -53.91,-45.86 -89.85,-57.6 -35.95,-11.98 -78.33,-17.97 -126.95,-17.97l-103.45 0 0 677.34 89.86 0c200.9,0 301.35,-112.88 301.35,-338.43zm855.43 67.26c0,16.59 -0.23,30.65 -0.68,41.7 -0.46,11.3 -1.16,21.89 -2.08,31.8l-475.53 0c0,69.34 19.37,122.8 58.06,159.89 38.71,37.1 94.47,55.76 167.5,55.76 19.82,0 39.62,-0.71 59.44,-2.31 19.8,-1.61 38.94,-3.68 57.37,-6.46 18.42,-2.76 36.17,-5.75 52.98,-9.21 17.05,-3.23 32.49,-6.9 47.01,-11.05l0 96.75c-32.04,9 -68.2,16.36 -108.53,21.89 -40.08,5.77 -82.01,8.53 -125.09,8.53 -58.29,0 -108.28,-7.84 -149.98,-23.73 -41.94,-15.67 -76.26,-38.48 -102.99,-68.42 -26.95,-29.96 -46.77,-66.6 -59.44,-110.14 -12.9,-43.32 -19.35,-92.61 -19.35,-147.45 0,-47.69 6.91,-92.85 20.51,-135.46 13.83,-42.4 33.86,-79.95 60.13,-111.97 26.27,-32.26 58.51,-57.83 96.77,-76.72 38.23,-18.89 81.78,-28.34 130.4,-28.34 47.21,0 88.91,7.38 125.55,22.35 36.41,14.74 67.04,35.71 91.92,62.89 25.13,27.19 44.02,60.36 56.91,99.3 12.67,38.71 19.12,82.25 19.12,130.4zm-121.65 -16.36c1.39,-30.17 -1.6,-57.83 -8.75,-82.71 -7.13,-24.88 -18.43,-46.53 -33.4,-64.51 -15.2,-17.95 -33.86,-32.01 -56.44,-42.15 -22.58,-10.14 -48.63,-15.2 -78.34,-15.2 -25.8,0 -49.08,4.83 -70.27,14.74 -21.19,9.9 -39.4,23.95 -54.83,41.93 -15.21,17.97 -27.65,39.62 -37.09,64.96 -9.45,25.11 -15.22,52.77 -17.52,82.94l356.64 0zm246.54 -286.14l133.61 0 202.29 558.24 37.09 -112.21 164.5 -446.03 128.78 0 -265.63 677.35 -135.01 0 -265.63 -677.35zm2148.38 438.67c0,41.69 -8.53,78.56 -25.59,109.89 -17.27,31.56 -40.99,57.83 -71.64,78.79 -30.65,20.97 -67.51,36.64 -110.58,47.01 -42.86,10.37 -90.32,15.43 -142.16,15.43 -23.49,0 -46.77,-0.92 -69.81,-2.76 -23.27,-1.85 -45.62,-3.92 -67.04,-6.7 -21.42,-2.76 -41.47,-5.97 -60.36,-9.43 -18.89,-3.69 -36.18,-7.38 -51.38,-11.53l0 -116.12c33.86,12.45 71.66,22.36 113.82,29.51 42.15,7.13 89.84,10.59 143.52,10.59 38.71,0 71.66,-3 98.85,-8.99 27.41,-6.22 49.53,-15.2 67.03,-26.96 17.29,-11.97 29.96,-26.48 37.78,-43.54 7.84,-17.05 11.76,-36.62 11.76,-58.52 0,-23.96 -6.68,-44.23 -19.81,-61.04 -13.37,-16.83 -30.87,-32.03 -52.31,-45.39 -21.65,-13.14 -46.3,-25.36 -73.94,-36.41 -27.66,-11.05 -55.98,-22.35 -84.78,-34.09 -28.81,-11.75 -57.15,-24.42 -84.79,-38.02 -27.66,-13.82 -52.29,-29.95 -73.73,-48.61 -21.65,-18.89 -39.17,-40.78 -52.52,-65.89 -13.13,-25.34 -19.82,-55.3 -19.82,-89.85 0,-30.19 6.22,-59.9 18.89,-89.16 12.68,-29.26 32.26,-55.3 58.76,-77.88 26.49,-22.8 60.58,-41.24 102.28,-55.05 41.7,-14.06 91.24,-20.98 149.06,-20.98 14.75,0 30.88,0.7 48.15,2.07 17.29,1.39 35.02,3.24 52.77,5.77 17.73,2.3 35.25,5.3 52.52,8.29 17.52,3.23 33.64,6.45 48.38,10.14l0 107.82c-34.55,-9.91 -69.34,-17.5 -103.9,-22.58 -34.78,-5.29 -68.2,-7.84 -100.67,-7.84 -68.89,0 -119.35,11.53 -151.83,34.57 -32.49,23.04 -48.62,53.91 -48.62,92.62 0,23.95 6.68,44.46 19.82,61.52 13.36,17.04 30.88,32.47 52.53,45.84 21.42,13.59 46.07,25.8 73.73,36.85 27.64,11.07 55.98,22.35 84.77,34.11 28.8,11.75 57.14,24.42 84.78,38.47 27.66,14.05 52.31,30.41 73.96,49.53 21.42,19.14 38.94,41.7 52.29,67.28 13.15,25.57 19.83,55.99 19.83,91.24z"/>
    <polygon class="fil4 str2" points="9612.75,970.65 9685.78,895.78 10139.41,1274.54 9685.78,1653.29 9612.75,1579.12 9980.44,1275.91 "/>
    <polygon class="fil4 str1" points="9364.16,688.43 8901.07,1787.38 8789.1,1787.38 9252.19,688.43 "/>
    <polygon class="fil4 str1" points="7773.55,1329.82 7369.9,1329.82 7369.9,1219.24 7773.55,1219.24 "/>
    <polygon class="fil4 str1" points="4010.59,1579.12 3937.08,1653.29 3483.92,1274.54 3937.08,895.78 4010.59,970.65 3642.88,1273.15 "/>
    <path class="fil3" d="M8624.84 1403.56c0,41.69 -8.53,78.56 -25.59,109.89 -17.27,31.56 -40.99,57.83 -71.64,78.79 -30.65,20.97 -67.51,36.64 -110.58,47.01 -42.86,10.37 -90.32,15.43 -142.16,15.43 -23.49,0 -46.77,-0.92 -69.81,-2.76 -23.27,-1.85 -45.62,-3.92 -67.04,-6.7 -21.42,-2.76 -41.47,-5.97 -60.36,-9.43 -18.89,-3.69 -36.18,-7.38 -51.38,-11.53l0 -116.12c33.86,12.45 71.66,22.36 113.82,29.51 42.15,7.13 89.84,10.59 143.52,10.59 38.71,0 71.66,-3 98.85,-8.99 27.41,-6.22 49.53,-15.2 67.03,-26.96 17.29,-11.97 29.96,-26.48 37.78,-43.54 7.84,-17.05 11.76,-36.62 11.76,-58.52 0,-23.96 -6.68,-44.23 -19.81,-61.04 -13.37,-16.83 -30.87,-32.03 -52.31,-45.39 -21.65,-13.14 -46.3,-25.36 -73.94,-36.41 -27.66,-11.05 -55.98,-22.35 -84.78,-34.09 -28.81,-11.75 -57.15,-24.42 -84.79,-38.02 -27.66,-13.82 -52.29,-29.95 -73.73,-48.61 -21.65,-18.89 -39.17,-40.78 -52.52,-65.89 -13.13,-25.34 -19.82,-55.3 -19.82,-89.85 0,-30.19 6.22,-59.9 18.89,-89.16 12.68,-29.26 32.26,-55.3 58.76,-77.88 26.49,-22.8 60.58,-41.24 102.28,-55.05 41.7,-14.06 91.24,-20.98 149.06,-20.98 14.75,0 30.88,0.7 48.15,2.07 17.29,1.39 35.02,3.24 52.77,5.77 17.73,2.3 35.25,5.3 52.52,8.29 17.52,3.23 33.64,6.45 48.38,10.14l0 107.82c-34.55,-9.91 -69.34,-17.5 -103.9,-22.58 -34.78,-5.29 -68.2,-7.84 -100.67,-7.84 -68.89,0 -119.35,11.53 -151.83,34.57 -32.49,23.04 -48.62,53.91 -48.62,92.62 0,23.95 6.68,44.46 19.82,61.52 13.36,17.04 30.88,32.47 52.53,45.84 21.42,13.59 46.07,25.8 73.73,36.85 27.64,11.07 55.98,22.35 84.77,34.11 28.8,11.75 57.14,24.42 84.78,38.47 27.66,14.05 52.31,30.41 73.96,49.53 21.42,19.14 38.94,41.7 52.29,67.28 13.15,25.57 19.83,55.99 19.83,91.24z"/>
    <polygon class="fil1 str3" points="560.98,1731.49 3049.74,1731.49 3049.74,218.77 560.98,218.77 "/>
    <path class="fil5 str3" d="M490.51 1926.56l2606.65 8.22c23.94,0.09 31.28,2.32 45.68,16.09l425.5 408.08c5.04,4.77 4.04,17.63 -6.87,17.59l-3529.7 -12.29c-14.65,-0.38 -13.98,-7.26 -1.67,-18.24l436.27 -409.88c11,-10.34 6.69,-9.63 24.14,-9.57z"/>
    <polygon class="fil6 str4" points="490.24,1989.62 490.51,1926.56 3097.16,1934.78 3096.9,1997.84 "/>
    <polygon class="fil6 str4" points="3096.9,1997.84 3097.16,1934.78 3105.41,1934.94 3112.37,1935.39 3118.33,1936.28 3123.57,1937.69 3128.37,1939.75 3132.99,1942.57 3137.72,1946.23 3142.84,1950.87 3142.57,2013.93 3137.45,2009.29 3132.72,2005.62 3128.11,2002.81 3123.31,2000.75 3118.07,1999.34 3112.1,1998.45 3105.14,1997.99 "/>
    <polygon class="fil6 str4" points="3142.57,2013.93 3142.84,1950.87 3568.34,2358.95 3568.07,2422.01 "/>
    <path class="fil6 str4" d="M3568.07 2422.01l1.6 2.12 0.98 2.64 0.33 2.92c2.21,-11.03 4.99,-60.56 -1.05,-68.62l-1.59 -2.12 -0.27 63.06z"/>
    <polygon class="fil6 str4" points="20.56,2422.17 20.82,2359.11 21.36,2356.51 23.12,2353.44 26.04,2349.93 30.1,2346.01 29.84,2409.07 25.77,2412.99 22.85,2416.5 21.1,2419.57 "/>
    <polygon class="fil6 str4" points="29.84,2409.07 30.1,2346.01 466.37,1936.13 466.11,1999.19 "/>
    <polygon class="fil6 str4" points="466.11,1999.19 466.37,1936.13 469.85,1932.75 472.34,1930.27 474.25,1928.55 476.02,1927.44 478.1,1926.83 480.93,1926.58 484.91,1926.53 490.51,1926.56 490.24,1989.62 484.64,1989.59 480.66,1989.64 477.83,1989.89 475.75,1990.5 473.98,1991.6 472.07,1993.32 469.59,1995.81 "/>
    <path class="fil6 str4" d="M490.24 1989.62l2606.66 8.22 8.24 0.15 6.96 0.46 5.97 0.89c1.75,0.47 3.49,0.93 5.24,1.41l4.8 2.06 4.61 2.81 4.73 3.67 5.12 4.64 425.5 408.08c0.53,0.71 1.07,1.41 1.6,2.12l0.98 2.64 0.33 2.92 -0.36 2.92 -1.12 2.7 -1.91 2.23 -2.76 1.51 -3.63 0.55 -3529.7 -12.29 -4.78 -0.44 -3.39 -1.02 -2.04 -1.59 -0.73 -2.09 0.54 -2.6 1.75 -3.07 2.92 -3.51 4.07 -3.92 436.27 -409.88 3.48 -3.38 2.48 -2.49 1.91 -1.72 1.77 -1.1 2.08 -0.61 2.83 -0.25 3.98 -0.05 5.6 0.03z"/>
    <path class="fil7 str3" d="M1571.16 2303.11l459.28 0 9.37 67.57c-161.84,0 -323.68,0 -485.53,0 5.63,-22.52 11.25,-45.05 16.88,-67.57zm-228.07 -159.32l881.23 0 89.12 115.1 -1037.79 0 67.44 -115.1z"/>
    <path class="fil8 str5" d="M569.19 151.2l2445.18 3.14c90.92,1.13 103.36,8.18 102.88,104.5l-7.41 1450.22c0.98,77.15 -9.64,91.32 -67.9,91.07l-2462.81 -10.41c-72.81,-3.06 -83.2,-12.6 -83.29,-105.17l-1.62 -1419.99c3.11,-108.1 13.63,-113.42 74.97,-113.36z"/>
    <path class="fil5 str3" d="M490.51 1926.56l2606.65 8.22c23.94,0.09 31.28,2.32 45.68,16.09l425.5 408.08c5.04,4.77 4.04,17.63 -6.87,17.59l-3529.7 -12.29c-14.65,-0.38 -13.98,-7.26 -1.67,-18.24l436.27 -409.88c11,-10.34 6.69,-9.63 24.14,-9.57z"/>
    <polygon class="fil9 str6" points="490.24,1989.62 490.51,1926.56 3097.16,1934.78 3096.9,1997.84 "/>
    <polygon class="fil6 str6" points="3096.9,1997.84 3097.16,1934.78 3105.41,1934.94 3112.37,1935.39 3118.33,1936.28 3123.57,1937.69 3128.37,1939.75 3132.99,1942.57 3137.72,1946.23 3142.84,1950.87 3142.57,2013.93 3137.45,2009.29 3132.72,2005.62 3128.11,2002.81 3123.31,2000.75 3118.07,1999.34 3112.1,1998.45 3105.14,1997.99 "/>
    <polygon class="fil9 str6" points="3142.57,2013.93 3142.84,1950.87 3568.34,2358.95 3568.07,2422.01 "/>
    <path class="fil6 str4" d="M3568.07 2422.01l1.6 2.12 0.98 2.64 0.33 2.92c2.21,-11.03 4.99,-60.56 -1.05,-68.62l-1.59 -2.12 -0.27 63.06z"/>
    <polygon class="fil6 str6" points="20.56,2422.17 20.82,2359.11 21.36,2356.51 23.12,2353.44 26.04,2349.93 30.1,2346.01 29.84,2409.07 25.77,2412.99 22.85,2416.5 21.1,2419.57 "/>
    <polygon class="fil9 str6" points="29.84,2409.07 30.1,2346.01 466.37,1936.13 466.11,1999.19 "/>
    <polygon class="fil6 str6" points="466.11,1999.19 466.37,1936.13 469.85,1932.75 472.34,1930.27 474.25,1928.55 476.02,1927.44 478.1,1926.83 480.93,1926.58 484.91,1926.53 490.51,1926.56 490.24,1989.62 484.64,1989.59 480.66,1989.64 477.83,1989.89 475.75,1990.5 473.98,1991.6 472.07,1993.32 469.59,1995.81 "/>
    <path class="fil10 str6" d="M490.24 1989.62l2606.66 8.22 8.24 0.15 6.96 0.46 5.97 0.89c1.75,0.47 3.49,0.93 5.24,1.41l4.8 2.06 4.61 2.81 4.73 3.67 5.12 4.64 425.5 408.08c0.53,0.71 1.07,1.41 1.6,2.12l0.98 2.64 0.33 2.92 -0.36 2.92 -1.12 2.7 -1.91 2.23 -2.76 1.51 -3.63 0.55 -3529.7 -12.29 -4.78 -0.44 -3.39 -1.02 -2.04 -1.59 -0.73 -2.09 0.54 -2.6 1.75 -3.07 2.92 -3.51 4.07 -3.92 436.27 -409.88 3.48 -3.38 2.48 -2.49 1.91 -1.72 1.77 -1.1 2.08 -0.61 2.83 -0.25 3.98 -0.05 5.6 0.03z"/>
    <path class="fil11 str7" d="M1571.16 2303.11l459.28 0 9.37 67.57c-161.84,0 -323.68,0 -485.53,0 5.63,-22.52 11.25,-45.05 16.88,-67.57zm-228.07 -159.32l881.23 0 89.12 115.1 -1037.79 0 67.44 -115.1z"/>
    <rect class="fil1 str8" x="8568.15" y="679" width="293.73" height="298.06"/>
    <rect class="fil1 str9" x="8861.25" y="733.22" width="155.51" height="194.39"/>
    <path class="fil12" d="M632.12 218.77l2319.99 2.88c86.27,1.03 98.07,7.51 97.61,95.87l-7.03 1330.42c0.93,70.78 -9.14,83.78 -64.42,83.55l-2336.72 -9.56c-69.08,-2.8 -78.94,-11.55 -79.02,-96.48l-1.55 -1302.69c2.95,-99.16 12.93,-104.04 71.14,-103.99z"/>
    <path class="fil13 str10" d="M1845.45 621.75c167.71,0 285.36,108.22 284.48,314.08 -0.12,28.52 -6.54,47.4 -13.55,66.48 -16.81,45.75 -43.01,78.04 -87.01,124.42 -27.49,28.98 -34.87,69.61 -42.84,131.67 -4.78,37.18 -13.12,40.61 -134.01,44.03 -227.87,6.43 -97.9,-11.9 -185.8,-169.19 -13.43,-24.03 -34.7,-35.4 -46.97,-52.59 -46.28,-64.85 -71.37,-105.57 -54.94,-230.56 6.58,-50.09 32.06,-92.11 57.87,-128.08 47.79,-66.58 135,-100.26 222.77,-100.26z"/>
    <path class="fil10 str11" d="M1707.57 1283.59c18.42,21.37 89.12,27.13 133.74,19.84 0,73.74 0,147.48 0,221.21 -78.15,0.01 -129.64,-95.19 -133.74,-241.05z"/>
    <path class="fil14 str11" d="M1981.28 1283.56c-18.83,18.88 -92.5,23.56 -136.52,19.84 0,73.74 0,147.48 0,221.22 78.15,0.01 132.43,-95.2 136.52,-241.06z"/>
    <polyline class="fil1 str11" points="1743.14,978.7 1757.28,903.97 1805.75,975.67 1845.14,888.31 1889.58,971.12 1938.56,906.99 1941.59,977.18 "/>
    <line class="fil1 str11" x1="1783.75" y1="1263.23" x2="1735.27" y2= "1017.82" />
    <line class="fil1 str11" x1="1896.87" y1="1263.23" x2="1945.34" y2= "1017.82" />
    <rect class="fil15 str12" x="2185.48" y="924.16" width="159.57" height="38.38"/>
    <rect class="fil15 str12" transform="matrix(0.183964 -0.0508043 0.0508043 0.183964 2171.13 719.872)" width="836.09" height="201.08"/>
    <rect class="fil15 str12" transform="matrix(0.132266 -0.137585 0.137585 0.132266 2020.41 573.503)" width="836.09" height="201.08"/>
    <rect class="fil15 str12" x="1318.97" y="928.2" width="159.57" height="38.38"/>
    <rect class="fil15 str12" transform="matrix(0.183524 0.0523738 -0.0523739 0.183523 1361.19 684.917)" width="836.09" height="201.08"/>
    <rect class="fil15 str12" transform="matrix(0.104476 0.159714 -0.159714 0.104476 1551.91 451.003)" width="836.09" height="201.08"/>
    <rect class="fil15 str12" transform="matrix(-0.00108682 0.190847 -0.190848 -0.00108682 1852.66 386.997)" width="836.09" height="201.08"/>
   </g>
  </g>
 </g>
</svg>
