<?xml version="1.0" encoding="UTF-8"?>
<!DOCTYPE svg PUBLIC "-//W3C//DTD SVG 1.1//EN" "http://www.w3.org/Graphics/SVG/1.1/DTD/svg11.dtd">
<!-- Creator: CorelDRAW 2019 (64-Bit) -->
<svg xmlns="http://www.w3.org/2000/svg" xml:space="preserve" width="76.835mm" height="28.7866mm" version="1.1" style="shape-rendering:geometricPrecision; text-rendering:geometricPrecision; image-rendering:optimizeQuality; fill-rule:evenodd; clip-rule:evenodd"
viewBox="0 0 7683.5 2878.66"
 xmlns:xlink="http://www.w3.org/1999/xlink"
 xmlns:xodm="http://www.corel.com/coreldraw/odm/2003">
 <defs>
  <style type="text/css">
   <![CDATA[
    .str11 {stroke:black;stroke-width:10.58;stroke-miterlimit:22.9256}
    .str0 {stroke:#FFFEF7;stroke-width:67.03;stroke-miterlimit:22.9256}
    .str12 {stroke:#CC7621;stroke-width:3.53;stroke-miterlimit:22.9256}
    .str5 {stroke:black;stroke-width:52.92;stroke-miterlimit:22.9256}
    .str9 {stroke:#F1D72C;stroke-width:35.28;stroke-miterlimit:22.9256}
    .str8 {stroke:#FCDC23;stroke-width:35.28;stroke-miterlimit:22.9256}
    .str3 {stroke:#373435;stroke-width:20;stroke-miterlimit:22.9256}
    .str7 {stroke:black;stroke-width:20;stroke-miterlimit:22.9256}
    .str10 {stroke:#282829;stroke-width:17.64;stroke-miterlimit:22.9256}
    .str1 {stroke:#CC7621;stroke-width:7.62;stroke-miterlimit:22.9256}
    .str2 {stroke:#E19549;stroke-width:7.62;stroke-miterlimit:22.9256}
    .str4 {stroke:#373435;stroke-width:20;stroke-linejoin:bevel;stroke-miterlimit:22.9256}
    .str6 {stroke:black;stroke-width:20;stroke-linejoin:bevel;stroke-miterlimit:22.9256}
    .fil1 {fill:none}
    .fil6 {fill:#373435}
    .fil10 {fill:#282829}
    .fil9 {fill:black}
    .fil0 {fill:#0066BB}
    .fil12 {fill:#F1D72C}
    .fil13 {fill:#F1D7A4}
    .fil8 {fill:#FEFEFE}
    .fil7 {fill:#FEFEFE;fill-rule:nonzero}
    .fil5 {fill:#373435;fill-rule:nonzero}
    .fil2 {fill:#28BB25;fill-rule:nonzero}
    .fil4 {fill:#F1D72C;fill-rule:nonzero}
    .fil3 {fill:#FEFEFE;fill-rule:nonzero}
    .fil11 {fill:white;fill-rule:nonzero}
   ]]>
  </style>
 </defs>
 <g id="Capa_x0020_1">
  <metadata id="CorelCorpID_0Corel-Layer"/>
  <rect class="fil0" x="-2.13" y="-0.01" width="7683.51" height="2878.67"/>
  <g id="_2514740380080">
   <path class="fil1 str0" d="M6008.33 1594.3c-145.16,-55.32 -509.86,-131.7 -502.33,105.89 2.98,94.82 82.98,188.52 72.55,274.47 -13.55,111.51 -130.41,200.85 -525.72,217.75 -470.72,20.14 -1324.73,-39.19 -2844.5,-248.35"/>
   <path class="fil2" d="M3078.16 1595.39l-53.19 53.68 -327.97 -274.11 327.97 -274.12 53.19 54.19 -266.12 218.93 266.12 221.43zm2723.34 -180.42l-292.12 0 0 -80.03 292.12 0 0 80.03zm1151.17 -464.19l-335.15 795.33 -81.04 0 335.15 -795.33 81.04 0zm179.91 204.25l52.85 -54.19 328.31 274.12 -328.31 274.11 -52.85 -53.68 266.1 -219.44 -266.1 -220.92z"/>
   <path class="fil3 str1" d="M3608.22 1002.79l0 443.53c0,27.34 -4,53.36 -12.17,77.86 -8.17,24.69 -20.5,46.03 -37.18,64.37 -16.5,18.17 -37.35,32.68 -62.36,43.35 -25.02,10.83 -54.52,16.17 -88.37,16.17 -12.67,0 -25.68,-0.83 -38.85,-2.67 -13.18,-1.83 -25.85,-4.33 -38.02,-7.5 -12.17,-3 -23.68,-6.84 -34.35,-11.34 -10.83,-4.34 -20,-9.17 -27.85,-14.5l0 -87.04c20.19,14.5 42.53,26.01 67.2,34.35 24.52,8.5 48.86,12.67 73.04,12.67 35.52,0 62.86,-10.84 82.03,-32.52 19.17,-21.67 28.85,-52.85 28.85,-93.53l0 -368.17 -243.1 0 0 -75.03 331.13 0zm636.11 312.14c0,30.51 -2.34,59.85 -7.01,87.87 -4.83,28.01 -12.33,54.02 -22.84,78.03 -10.34,24.18 -23.84,46.02 -40.51,65.7 -16.68,19.67 -37.02,36.51 -61.03,50.52 -24.18,14 -52.19,24.84 -84.04,32.51 -32.01,7.67 -68.19,11.51 -109.04,11.51l-136.73 0 0 -638.28 164.57 0c99.72,0 174.08,25.69 223.1,76.88 49.01,51.35 73.53,129.71 73.53,235.26zm-91.04 6.17c0,-45.18 -4.17,-83.54 -12.67,-114.72 -8.51,-31.35 -21.35,-56.52 -38.68,-75.86 -17.35,-19.18 -39.02,-33.19 -65.03,-41.69 -26.02,-8.67 -56.69,-13 -91.88,-13l-74.86 0 0 490.21 65.03 0c145.4,0 218.09,-81.7 218.09,-244.94zm619.1 48.68c0,12.01 -0.17,22.18 -0.5,30.18 -0.33,8.18 -0.84,15.85 -1.5,23.02l-344.15 0c0,50.18 14.01,88.87 42.02,115.71 28.01,26.85 68.36,40.36 121.22,40.36 14.34,0 28.67,-0.51 43.02,-1.67 14.33,-1.17 28.18,-2.67 41.52,-4.68 13.33,-2 26.17,-4.16 38.34,-6.66 12.34,-2.34 23.52,-5 34.02,-8l0 70.02c-23.18,6.51 -49.35,11.84 -78.54,15.84 -29.01,4.17 -59.35,6.17 -90.53,6.17 -42.19,0 -78.37,-5.67 -108.55,-17.17 -30.35,-11.34 -55.19,-27.85 -74.53,-49.52 -19.51,-21.68 -33.85,-48.2 -43.02,-79.71 -9.34,-31.35 -14.01,-67.02 -14.01,-106.71 0,-34.51 5,-67.2 14.85,-98.04 10,-30.68 24.5,-57.86 43.51,-81.03 19.02,-23.35 42.35,-41.85 70.04,-55.52 27.67,-13.68 59.18,-20.52 94.37,-20.52 34.17,0 64.35,5.34 90.87,16.18 26.35,10.67 48.51,25.84 66.52,45.51 18.19,19.68 31.86,43.69 41.19,71.87 9.17,28.02 13.84,59.53 13.84,94.37zm-88.04 -11.84c1,-21.83 -1.16,-41.85 -6.34,-59.86 -5.16,-18 -13.34,-33.67 -24.17,-46.68 -11,-13 -24.51,-23.17 -40.85,-30.51 -16.34,-7.34 -35.19,-11 -56.69,-11 -18.67,0 -35.52,3.5 -50.86,10.67 -15.34,7.16 -28.51,17.33 -39.68,30.34 -11.01,13.01 -20.01,28.68 -26.84,47.02 -6.84,18.17 -11.02,38.19 -12.68,60.02l258.11 0zm178.42 -207.08l96.7 0 146.4 404.01 26.85 -81.21 119.04 -322.8 93.21 0 -192.25 490.21 -97.7 0 -192.25 -490.21zm1554.83 317.47c0,30.18 -6.17,56.86 -18.51,79.53 -12.51,22.84 -29.67,41.86 -51.85,57.03 -22.18,15.17 -48.86,26.51 -80.03,34.02 -31.02,7.5 -65.37,11.16 -102.88,11.16 -17.01,0 -33.86,-0.66 -50.53,-2 -16.84,-1.33 -33.01,-2.83 -48.52,-4.84 -15.5,-2 -30.01,-4.32 -43.68,-6.83 -13.67,-2.67 -26.18,-5.34 -37.19,-8.34l0 -84.04c24.51,9.01 51.87,16.18 82.37,21.35 30.51,5.17 65.03,7.67 103.88,7.67 28.01,0 51.86,-2.17 71.53,-6.51 19.84,-4.5 35.85,-11 48.52,-19.51 12.51,-8.66 21.68,-19.16 27.34,-31.51 5.67,-12.34 8.51,-26.5 8.51,-42.35 0,-17.34 -4.83,-32.01 -14.33,-44.18 -9.68,-12.18 -22.35,-23.18 -37.86,-32.85 -15.67,-9.51 -33.51,-18.35 -53.52,-26.35 -20.01,-8 -40.51,-16.17 -61.36,-24.67 -20.84,-8.51 -41.35,-17.67 -61.36,-27.52 -20.01,-9.99 -37.84,-21.67 -53.36,-35.17 -15.67,-13.67 -28.35,-29.52 -38.01,-47.69 -9.5,-18.34 -14.35,-40.02 -14.35,-65.03 0,-21.84 4.51,-43.35 13.68,-64.52 9.18,-21.18 23.34,-40.02 42.52,-56.37 19.18,-16.5 43.85,-29.84 74.03,-39.84 30.18,-10.17 66.03,-15.18 107.88,-15.18 10.67,0 22.34,0.51 34.84,1.5 12.52,1 25.35,2.34 38.19,4.17 12.84,1.66 25.51,3.84 38.02,6 12.67,2.34 24.34,4.67 35.01,7.34l0 78.03c-25.01,-7.17 -50.19,-12.66 -75.2,-16.34 -25.17,-3.83 -49.36,-5.67 -72.86,-5.67 -49.85,0 -86.37,8.34 -109.88,25.01 -23.51,16.68 -35.18,39.02 -35.18,67.04 0,17.33 4.83,32.17 14.34,44.52 9.67,12.33 22.35,23.5 38.01,33.18 15.51,9.83 33.35,18.67 53.36,26.67 20.01,8.01 40.52,16.17 61.35,24.68 20.85,8.51 41.36,17.68 61.36,27.84 20.02,10.17 37.86,22.01 53.53,35.85 15.5,13.85 28.18,30.18 37.85,48.69 9.51,18.51 14.34,40.52 14.34,66.03z"/>
   <polygon class="fil4 str2" points="7132.58,1155.03 7185.43,1100.84 7513.74,1374.96 7185.43,1649.07 7132.58,1595.39 7398.68,1375.95 "/>
   <polygon class="fil4 str1" points="6952.67,950.78 6617.52,1746.11 6536.48,1746.11 6871.63,950.78 "/>
   <polygon class="fil4 str1" points="5801.5,1414.97 5509.38,1414.97 5509.38,1334.94 5801.5,1334.94 "/>
   <polygon class="fil4 str1" points="3078.16,1595.39 3024.97,1649.07 2697,1374.96 3024.97,1100.84 3078.16,1155.03 2812.04,1373.96 "/>
   <path class="fil3" d="M6417.6 1468.33c0,30.18 -6.17,56.86 -18.51,79.53 -12.51,22.84 -29.67,41.86 -51.85,57.03 -22.18,15.17 -48.86,26.51 -80.03,34.02 -31.02,7.5 -65.37,11.16 -102.88,11.16 -17.01,0 -33.86,-0.66 -50.53,-2 -16.84,-1.33 -33.01,-2.83 -48.52,-4.84 -15.5,-2 -30.01,-4.32 -43.68,-6.83 -13.67,-2.67 -26.18,-5.34 -37.19,-8.34l0 -84.04c24.51,9.01 51.87,16.18 82.37,21.35 30.51,5.17 65.03,7.67 103.88,7.67 28.01,0 51.86,-2.17 71.53,-6.51 19.84,-4.5 35.85,-11 48.52,-19.51 12.51,-8.66 21.68,-19.16 27.34,-31.51 5.67,-12.34 8.51,-26.5 8.51,-42.35 0,-17.34 -4.83,-32.01 -14.33,-44.18 -9.68,-12.18 -22.35,-23.18 -37.86,-32.85 -15.67,-9.51 -33.51,-18.35 -53.52,-26.35 -20.01,-8 -40.51,-16.17 -61.36,-24.67 -20.84,-8.51 -41.35,-17.67 -61.36,-27.52 -20.01,-9.99 -37.84,-21.67 -53.36,-35.17 -15.67,-13.67 -28.35,-29.52 -38.01,-47.69 -9.5,-18.34 -14.35,-40.02 -14.35,-65.03 0,-21.84 4.51,-43.35 13.68,-64.52 9.18,-21.18 23.34,-40.02 42.52,-56.37 19.18,-16.5 43.85,-29.84 74.03,-39.84 30.18,-10.17 66.03,-15.18 107.88,-15.18 10.67,0 22.34,0.51 34.84,1.5 12.52,1 25.35,2.34 38.19,4.17 12.84,1.66 25.51,3.84 38.02,6 12.67,2.34 24.34,4.67 35.01,7.34l0 78.03c-25.01,-7.17 -50.19,-12.66 -75.2,-16.34 -25.17,-3.83 -49.36,-5.67 -72.86,-5.67 -49.85,0 -86.37,8.34 -109.88,25.01 -23.51,16.68 -35.18,39.02 -35.18,67.04 0,17.33 4.83,32.17 14.34,44.52 9.67,12.33 22.35,23.5 38.01,33.18 15.51,9.83 33.35,18.67 53.36,26.67 20.01,8.01 40.52,16.17 61.35,24.68 20.85,8.51 41.36,17.68 61.36,27.84 20.02,10.17 37.86,22.01 53.53,35.85 15.5,13.85 28.18,30.18 37.85,48.69 9.51,18.51 14.34,40.52 14.34,66.03z"/>
   <polygon class="fil1 str3" points="511.31,1693.69 2103.7,1693.69 2103.7,725.8 511.31,725.8 "/>
   <path class="fil5 str3" d="M466.22 1818.51l1667.82 5.25c15.32,0.06 20.02,1.49 29.23,10.3l272.25 261.1c3.22,3.06 2.58,11.28 -4.4,11.26l-2258.42 -7.86c-9.36,-0.25 -8.94,-4.65 -1.06,-11.68l279.14 -262.25c7.04,-6.62 4.28,-6.17 15.44,-6.12z"/>
   <polygon class="fil6 str4" points="466.05,1858.85 466.22,1818.51 2134.04,1823.76 2133.87,1864.11 "/>
   <polygon class="fil6 str4" points="2133.87,1864.11 2134.04,1823.76 2139.32,1823.86 2143.77,1824.15 2147.59,1824.72 2150.94,1825.62 2154.01,1826.94 2156.97,1828.75 2159.99,1831.09 2163.27,1834.06 2163.09,1874.41 2159.82,1871.43 2156.8,1869.09 2153.84,1867.29 2150.77,1865.97 2147.42,1865.07 2143.6,1864.5 2139.15,1864.21 "/>
   <polygon class="fil6 str4" points="2163.09,1874.41 2163.27,1834.06 2435.52,2095.16 2435.35,2135.51 "/>
   <path class="fil6 str4" d="M2435.35 2135.51l1.02 1.36 0.63 1.69 0.21 1.86c1.41,-7.05 3.19,-38.74 -0.67,-43.9l-1.02 -1.36 -0.17 40.35z"/>
   <polygon class="fil6 str4" points="165.53,2135.61 165.7,2095.26 166.05,2093.6 167.17,2091.64 169.04,2089.39 171.64,2086.88 171.47,2127.23 168.87,2129.74 167,2131.98 165.88,2133.95 "/>
   <polygon class="fil6 str4" points="171.47,2127.23 171.64,2086.88 450.78,1824.63 450.61,1864.98 "/>
   <polygon class="fil6 str4" points="450.61,1864.98 450.78,1824.63 453.01,1822.47 454.59,1820.88 455.82,1819.77 456.95,1819.07 458.28,1818.68 460.09,1818.52 462.64,1818.48 466.22,1818.51 466.05,1858.85 462.47,1858.83 459.92,1858.86 458.11,1859.03 456.78,1859.42 455.65,1860.12 454.42,1861.22 452.84,1862.81 "/>
   <path class="fil6 str4" d="M466.05 1858.85l1667.82 5.26 5.28 0.1 4.45 0.29 3.82 0.57c1.12,0.3 2.23,0.6 3.35,0.9l3.07 1.32 2.96 1.8 3.02 2.34 3.27 2.98 272.26 261.1c0.33,0.45 0.68,0.9 1.02,1.36l0.63 1.69 0.21 1.86 -0.23 1.87 -0.72 1.73 -1.22 1.43 -1.77 0.96 -2.32 0.36 -2258.42 -7.87 -3.05 -0.28 -2.17 -0.66 -1.31 -1.01 -0.47 -1.34 0.35 -1.66 1.12 -1.97 1.87 -2.24 2.6 -2.51 279.14 -262.25 2.23 -2.17 1.58 -1.59 1.23 -1.1 1.13 -0.7 1.33 -0.39 1.81 -0.17 2.55 -0.03 3.58 0.02z"/>
   <path class="fil7 str3" d="M1157.66 2059.43l293.86 0 6 43.24c-103.56,0 -207.11,0 -310.66,0 3.6,-14.41 7.2,-28.82 10.8,-43.24zm-145.93 -101.94l563.84 0 57.02 73.65 -664.01 0 43.15 -73.65z"/>
   <path class="fil8 str5" d="M516.56 682.57l1564.51 2.01c58.17,0.72 66.13,5.24 65.82,66.86l-4.74 927.9c0.63,49.36 -6.16,58.43 -43.44,58.27l-1575.78 -6.66c-46.59,-1.96 -53.24,-8.06 -53.29,-67.29l-1.04 -908.56c1.99,-69.16 8.72,-72.57 47.96,-72.53z"/>
   <path class="fil5 str3" d="M466.22 1818.51l1667.82 5.25c15.32,0.06 20.02,1.49 29.23,10.3l272.25 261.1c3.22,3.06 2.58,11.28 -4.4,11.26l-2258.42 -7.86c-9.36,-0.25 -8.94,-4.65 -1.06,-11.68l279.14 -262.25c7.04,-6.62 4.28,-6.17 15.44,-6.12z"/>
   <polygon class="fil9 str6" points="466.05,1858.85 466.22,1818.51 2134.04,1823.76 2133.87,1864.11 "/>
   <polygon class="fil6 str6" points="2133.87,1864.11 2134.04,1823.76 2139.32,1823.86 2143.77,1824.15 2147.59,1824.72 2150.94,1825.62 2154.01,1826.94 2156.97,1828.75 2159.99,1831.09 2163.27,1834.06 2163.09,1874.41 2159.82,1871.43 2156.8,1869.09 2153.84,1867.29 2150.77,1865.97 2147.42,1865.07 2143.6,1864.5 2139.15,1864.21 "/>
   <polygon class="fil9 str6" points="2163.09,1874.41 2163.27,1834.06 2435.52,2095.16 2435.35,2135.51 "/>
   <path class="fil6 str4" d="M2435.35 2135.51l1.02 1.36 0.63 1.69 0.21 1.86c1.41,-7.05 3.19,-38.74 -0.67,-43.9l-1.02 -1.36 -0.17 40.35z"/>
   <polygon class="fil6 str6" points="165.53,2135.61 165.7,2095.26 166.05,2093.6 167.17,2091.64 169.04,2089.39 171.64,2086.88 171.47,2127.23 168.87,2129.74 167,2131.98 165.88,2133.95 "/>
   <polygon class="fil9 str6" points="171.47,2127.23 171.64,2086.88 450.78,1824.63 450.61,1864.98 "/>
   <polygon class="fil6 str6" points="450.61,1864.98 450.78,1824.63 453.01,1822.47 454.59,1820.88 455.82,1819.77 456.95,1819.07 458.28,1818.68 460.09,1818.52 462.64,1818.48 466.22,1818.51 466.05,1858.85 462.47,1858.83 459.92,1858.86 458.11,1859.03 456.78,1859.42 455.65,1860.12 454.42,1861.22 452.84,1862.81 "/>
   <path class="fil10 str6" d="M466.05 1858.85l1667.82 5.26 5.28 0.1 4.45 0.29 3.82 0.57c1.12,0.3 2.23,0.6 3.35,0.9l3.07 1.32 2.96 1.8 3.02 2.34 3.27 2.98 272.26 261.1c0.33,0.45 0.68,0.9 1.02,1.36l0.63 1.69 0.21 1.86 -0.23 1.87 -0.72 1.73 -1.22 1.43 -1.77 0.96 -2.32 0.36 -2258.42 -7.87 -3.05 -0.28 -2.17 -0.66 -1.31 -1.01 -0.47 -1.34 0.35 -1.66 1.12 -1.97 1.87 -2.24 2.6 -2.51 279.14 -262.25 2.23 -2.17 1.58 -1.59 1.23 -1.1 1.13 -0.7 1.33 -0.39 1.81 -0.17 2.55 -0.03 3.58 0.02z"/>
   <path class="fil11 str7" d="M1157.66 2059.43l293.86 0 6 43.24c-103.56,0 -207.11,0 -310.66,0 3.6,-14.41 7.2,-28.82 10.8,-43.24zm-145.93 -101.94l563.84 0 57.02 73.65 -664.01 0 43.15 -73.65z"/>
   <rect class="fil1 str8" x="6379.82" y="931.2" width="212.58" height="215.71"/>
   <rect class="fil1 str9" x="6598.7" y="968.69" width="112.55" height="140.68"/>
   <path class="fil0 str10" d="M1082.31 930.54c84.35,64.78 162.32,128.32 251.32,195.57 36.36,27.5 39.43,50.49 33.11,75.78 -7.01,27.94 -28.79,56.91 -67.99,72.03 -19.78,7.64 -36.13,-2.74 -53.33,-16.13l-263.57 -205.1c-46.7,-36.35 53.85,-157.91 100.46,-122.15z"/>
   <polyline class="fil1 str11" points="1588.2,1433.75 1344.05,1243.52 1358.94,1224.41 1602.98,1414.6 "/>
   <path class="fil1 str11" d="M1578.05 1434.62l3.03 -3.71 1.36 -1.64m15.32 -18.75l8.35 -10.23 48.65 56.6c9.64,11.19 -4.33,27.05 -16.54,20.25l-32.6 -18.18c-10.87,-6.06 -21.72,-12.11 -32.59,-18.17l5.02 -6.17"/>
   <rect class="fil12 str12" transform="matrix(1.22899 -1.55747 1.55747 1.22899 1031.59 1041.28)" width="13.5" height="132.03"/>
   <rect class="fil13 str12" transform="matrix(1.22899 -1.55747 1.55747 1.22899 1065.1 998.289)" width="13.5" height="132.03"/>
  </g>
 </g>
</svg>
