<?xml version="1.0" encoding="UTF-8"?>
<!DOCTYPE svg PUBLIC "-//W3C//DTD SVG 1.1//EN" "http://www.w3.org/Graphics/SVG/1.1/DTD/svg11.dtd">
<!-- Creator: CorelDRAW 2019 (64-Bit) -->
<svg xmlns="http://www.w3.org/2000/svg" xml:space="preserve" width="101.6mm" height="42.3332mm" version="1.1" style="shape-rendering:geometricPrecision; text-rendering:geometricPrecision; image-rendering:optimizeQuality; fill-rule:evenodd; clip-rule:evenodd"
viewBox="0 0 10160 4233.32"
 xmlns:xlink="http://www.w3.org/1999/xlink"
 xmlns:xodm="http://www.corel.com/coreldraw/odm/2003">
 <defs>
  <style type="text/css">
   <![CDATA[
    .str11 {stroke:black;stroke-width:10.58;stroke-miterlimit:22.9256}
    .str12 {stroke:#CC7621;stroke-width:3.53;stroke-miterlimit:22.9256}
    .str5 {stroke:black;stroke-width:52.92;stroke-miterlimit:22.9256}
    .str9 {stroke:#F1D72C;stroke-width:35.28;stroke-miterlimit:22.9256}
    .str8 {stroke:#FCDC23;stroke-width:35.28;stroke-miterlimit:22.9256}
    .str3 {stroke:#373435;stroke-width:20;stroke-miterlimit:22.9256}
    .str7 {stroke:black;stroke-width:20;stroke-miterlimit:22.9256}
    .str10 {stroke:#282829;stroke-width:17.64;stroke-miterlimit:22.9256}
    .str0 {stroke:#FFFEF7;stroke-width:104.78;stroke-miterlimit:22.9256}
    .str1 {stroke:#CC7621;stroke-width:7.62;stroke-miterlimit:22.9256}
    .str2 {stroke:#E19549;stroke-width:7.62;stroke-miterlimit:22.9256}
    .str4 {stroke:#373435;stroke-width:20;stroke-linejoin:bevel;stroke-miterlimit:22.9256}
    .str6 {stroke:black;stroke-width:20;stroke-linejoin:bevel;stroke-miterlimit:22.9256}
    .fil1 {fill:none}
    .fil6 {fill:#373435}
    .fil10 {fill:#282829}
    .fil9 {fill:black}
    .fil0 {fill:#0066BB}
    .fil12 {fill:#F1D72C}
    .fil13 {fill:#F1D7A4}
    .fil8 {fill:#FEFEFE}
    .fil7 {fill:#FEFEFE;fill-rule:nonzero}
    .fil5 {fill:#373435;fill-rule:nonzero}
    .fil2 {fill:#28BB25;fill-rule:nonzero}
    .fil4 {fill:#F1D72C;fill-rule:nonzero}
    .fil3 {fill:#FEFEFE;fill-rule:nonzero}
    .fil11 {fill:white;fill-rule:nonzero}
   ]]>
  </style>
 </defs>
 <g id="Capa_x0020_1">
  <metadata id="CorelCorpID_0Corel-Layer"/>
  <rect class="fil0" x="-0.01" y="-0.01" width="10160" height="4233.33"/>
  <g id="_2514332318448">
   <path class="fil1 str0" d="M7810.72 2290.48c-184.69,-70.38 -648.72,-167.57 -639.15,134.73 3.79,120.65 105.58,239.87 92.31,349.22 -17.24,141.88 -165.93,255.55 -668.9,277.06 -598.93,25.62 -1685.53,-49.86 -3619.22,-315.98"/>
   <path class="fil2" d="M4082.5 2291.87l-67.69 68.3 -417.28 -348.77 417.28 -348.77 67.69 68.94 -338.6 278.56 338.6 281.74zm3465.06 -229.56l-371.69 0 0 -101.83 371.69 0 0 101.83zm1464.69 -590.62l-426.43 1011.95 -103.11 0 426.43 -1011.95 103.11 0zm228.91 259.88l67.24 -68.94 417.73 348.77 -417.73 348.77 -67.24 -68.3 338.58 -279.2 -338.58 -281.1z"/>
   <path class="fil3 str1" d="M4756.92 1537.87l0 564.33c0,34.78 -5.09,67.89 -15.49,99.07 -10.39,31.41 -26.08,58.56 -47.3,81.89 -21,23.12 -47.52,41.59 -79.35,55.16 -31.82,13.79 -69.37,20.58 -112.44,20.58 -16.11,0 -32.67,-1.06 -49.43,-3.39 -16.76,-2.33 -32.88,-5.52 -48.37,-9.55 -15.48,-3.82 -30.12,-8.71 -43.7,-14.43 -13.79,-5.52 -25.45,-11.67 -35.44,-18.45l0 -110.74c25.68,18.44 54.11,33.09 85.5,43.7 31.2,10.81 62.17,16.12 92.93,16.12 45.19,0 79.98,-13.79 104.38,-41.38 24.39,-27.57 36.7,-67.24 36.7,-119.01l0 -468.43 -309.31 0 0 -95.47 421.32 0zm809.36 397.16c0,38.82 -2.98,76.15 -8.92,111.79 -6.14,35.65 -15.69,68.74 -29.06,99.29 -13.15,30.76 -30.34,58.56 -51.55,83.59 -21.21,25.03 -47.1,46.46 -77.65,64.29 -30.76,17.81 -66.41,31.6 -106.92,41.36 -40.73,9.75 -86.77,14.64 -138.74,14.64l-173.97 0 0 -812.12 209.39 0c126.88,0 221.49,32.69 283.86,97.82 62.36,65.33 93.56,165.04 93.56,299.34zm-115.84 7.85c0,-57.49 -5.31,-106.29 -16.12,-145.97 -10.82,-39.88 -27.16,-71.91 -49.22,-96.52 -22.07,-24.4 -49.64,-42.23 -82.73,-53.04 -33.11,-11.03 -72.13,-16.55 -116.91,-16.55l-95.25 0 0 623.72 82.75 0c184.99,0 277.48,-103.94 277.48,-311.64zm787.72 61.94c0,15.27 -0.21,28.22 -0.63,38.4 -0.43,10.4 -1.07,20.16 -1.91,29.28l-437.89 0c0,63.85 17.83,113.07 53.46,147.23 35.65,34.16 86.99,51.34 154.24,51.34 18.25,0 36.49,-0.64 54.74,-2.12 18.23,-1.48 35.85,-3.39 52.83,-5.95 16.96,-2.54 33.3,-5.29 48.78,-8.48 15.7,-2.98 29.92,-6.36 43.29,-10.18l0 89.1c-29.5,8.28 -62.8,15.06 -99.94,20.16 -36.9,5.3 -75.51,7.84 -115.19,7.84 -53.67,0 -99.7,-7.21 -138.1,-21.84 -38.62,-14.43 -70.23,-35.44 -94.84,-63.01 -24.82,-27.59 -43.07,-61.32 -54.74,-101.42 -11.87,-39.88 -17.81,-85.27 -17.81,-135.77 0,-43.92 6.36,-85.5 18.88,-124.74 12.74,-39.04 31.18,-73.62 55.37,-103.11 24.19,-29.7 53.88,-53.25 89.11,-70.64 35.21,-17.4 75.31,-26.1 120.08,-26.1 43.48,0 81.87,6.8 115.61,20.58 33.53,13.58 61.73,32.88 84.64,57.91 23.14,25.04 40.53,55.58 52.41,91.44 11.67,35.65 17.61,75.74 17.61,120.08zm-112.02 -15.07c1.27,-27.78 -1.48,-53.25 -8.06,-76.16 -6.57,-22.91 -16.97,-42.85 -30.76,-59.4 -14,-16.54 -31.18,-29.48 -51.97,-38.82 -20.8,-9.33 -44.78,-13.99 -72.14,-13.99 -23.75,0 -45.19,4.45 -64.71,13.57 -19.51,9.11 -36.27,22.06 -50.48,38.61 -14.01,16.55 -25.47,36.49 -34.16,59.82 -8.7,23.12 -14.01,48.59 -16.13,76.37l328.41 0zm227.01 -263.48l123.04 0 186.28 514.04 34.15 -103.33 151.47 -410.71 118.59 0 -244.6 623.72 -124.32 0 -244.61 -623.72zm1978.3 403.93c0,38.4 -7.84,72.35 -23.55,101.2 -15.91,29.06 -37.76,53.25 -65.97,72.55 -28.22,19.31 -62.17,33.74 -101.83,43.29 -39.47,9.54 -83.17,14.2 -130.9,14.2 -21.64,0 -43.08,-0.84 -64.29,-2.54 -21.42,-1.7 -42.01,-3.6 -61.73,-6.16 -19.72,-2.54 -38.19,-5.5 -55.58,-8.69 -17.4,-3.4 -33.32,-6.8 -47.31,-10.61l0 -106.93c31.18,11.46 65.98,20.58 104.8,27.17 38.82,6.57 82.73,9.76 132.16,9.76 35.65,0 65.99,-2.77 91.02,-8.29 25.24,-5.73 45.62,-13.99 61.73,-24.82 15.92,-11.02 27.59,-24.38 34.79,-40.09 7.22,-15.7 10.83,-33.73 10.83,-53.89 0,-22.07 -6.15,-40.72 -18.24,-56.21 -12.31,-15.5 -28.43,-29.5 -48.17,-41.79 -19.94,-12.11 -42.64,-23.35 -68.09,-33.53 -25.47,-10.18 -51.55,-20.58 -78.07,-31.39 -26.52,-10.83 -52.62,-22.49 -78.08,-35.02 -25.46,-12.72 -48.15,-27.57 -67.89,-44.75 -19.93,-17.4 -36.07,-37.56 -48.36,-60.68 -12.09,-23.33 -18.26,-50.92 -18.26,-82.73 0,-27.8 5.73,-55.16 17.4,-82.11 11.68,-26.94 29.71,-50.92 54.11,-71.71 24.4,-21 55.79,-37.98 94.19,-50.69 38.39,-12.95 84.01,-19.32 137.26,-19.32 13.57,0 28.43,0.64 44.33,1.91 15.92,1.27 32.25,2.97 48.59,5.3 16.33,2.12 32.46,4.89 48.37,7.64 16.13,2.98 30.97,5.94 44.54,9.34l0 99.28c-31.81,-9.12 -63.85,-16.11 -95.67,-20.79 -32.03,-4.87 -62.8,-7.22 -92.7,-7.22 -63.43,0 -109.9,10.62 -139.81,31.83 -29.91,21.21 -44.77,49.64 -44.77,85.29 0,22.05 6.15,40.94 18.25,56.65 12.3,15.69 28.43,29.9 48.37,42.21 19.72,12.51 42.43,23.76 67.89,33.94 25.46,10.19 51.56,20.58 78.06,31.4 26.52,10.83 52.62,22.49 78.07,35.42 25.47,12.95 48.17,28.01 68.11,45.62 19.72,17.62 35.85,38.39 48.15,61.95 12.1,23.55 18.25,51.56 18.25,84.01z"/>
   <polygon class="fil4 str2" points="9241.16,1731.57 9308.4,1662.63 9726.13,2011.4 9308.4,2360.17 9241.16,2291.87 9579.74,2012.67 "/>
   <polygon class="fil4 str1" points="9012.25,1471.69 8585.82,2483.64 8482.71,2483.64 8909.14,1471.69 "/>
   <polygon class="fil4 str1" points="7547.56,2062.31 7175.87,2062.31 7175.87,1960.48 7547.56,1960.48 "/>
   <polygon class="fil4 str1" points="4082.5,2291.87 4014.81,2360.17 3597.53,2011.4 4014.81,1662.63 4082.5,1731.57 3743.9,2010.13 "/>
   <path class="fil3" d="M8331.45 2130.2c0,38.4 -7.84,72.35 -23.55,101.2 -15.91,29.06 -37.76,53.25 -65.97,72.55 -28.22,19.31 -62.17,33.74 -101.83,43.29 -39.47,9.54 -83.17,14.2 -130.9,14.2 -21.64,0 -43.08,-0.84 -64.29,-2.54 -21.42,-1.7 -42.01,-3.6 -61.73,-6.16 -19.72,-2.54 -38.19,-5.5 -55.58,-8.69 -17.4,-3.4 -33.32,-6.8 -47.31,-10.61l0 -106.93c31.18,11.46 65.98,20.58 104.8,27.17 38.82,6.57 82.73,9.76 132.16,9.76 35.65,0 65.99,-2.77 91.02,-8.29 25.24,-5.73 45.62,-13.99 61.73,-24.82 15.92,-11.02 27.59,-24.38 34.79,-40.09 7.22,-15.7 10.83,-33.73 10.83,-53.89 0,-22.07 -6.15,-40.72 -18.24,-56.21 -12.31,-15.5 -28.43,-29.5 -48.17,-41.79 -19.94,-12.11 -42.64,-23.35 -68.09,-33.53 -25.47,-10.18 -51.55,-20.58 -78.07,-31.39 -26.52,-10.83 -52.62,-22.49 -78.08,-35.02 -25.46,-12.72 -48.15,-27.57 -67.89,-44.75 -19.93,-17.4 -36.07,-37.56 -48.36,-60.68 -12.09,-23.33 -18.26,-50.92 -18.26,-82.73 0,-27.8 5.73,-55.16 17.4,-82.11 11.68,-26.94 29.71,-50.92 54.11,-71.71 24.4,-21 55.79,-37.98 94.19,-50.69 38.39,-12.95 84.01,-19.32 137.26,-19.32 13.57,0 28.43,0.64 44.33,1.91 15.92,1.27 32.25,2.97 48.59,5.3 16.33,2.12 32.46,4.89 48.37,7.64 16.13,2.98 30.97,5.94 44.54,9.34l0 99.28c-31.81,-9.12 -63.85,-16.11 -95.67,-20.79 -32.03,-4.87 -62.8,-7.22 -92.7,-7.22 -63.43,0 -109.9,10.62 -139.81,31.83 -29.91,21.21 -44.77,49.64 -44.77,85.29 0,22.05 6.15,40.94 18.25,56.65 12.3,15.69 28.43,29.9 48.37,42.21 19.72,12.51 42.43,23.76 67.89,33.94 25.46,10.19 51.56,20.58 78.06,31.4 26.52,10.83 52.62,22.49 78.07,35.42 25.47,12.95 48.17,28.01 68.11,45.62 19.72,17.62 35.85,38.39 48.15,61.95 12.1,23.55 18.25,51.56 18.25,84.01z"/>
   <polygon class="fil1 str3" points="816.55,2416.94 2842.63,2416.94 2842.63,1185.45 816.55,1185.45 "/>
   <path class="fil5 str3" d="M759.18 2575.75l2122.06 6.69c19.49,0.07 25.47,1.89 37.18,13.11l346.4 332.21c4.11,3.88 3.29,14.35 -5.59,14.32l-2873.51 -10c-11.92,-0.31 -11.38,-5.92 -1.35,-14.86l355.16 -333.67c8.95,-8.42 5.44,-7.85 19.65,-7.8z"/>
   <polygon class="fil6 str4" points="758.96,2627.09 759.18,2575.75 2881.24,2582.44 2881.02,2633.78 "/>
   <polygon class="fil6 str4" points="2881.02,2633.78 2881.24,2582.44 2887.96,2582.57 2893.62,2582.94 2898.48,2583.67 2902.74,2584.81 2906.65,2586.49 2910.41,2588.78 2914.26,2591.76 2918.42,2595.55 2918.21,2646.88 2914.04,2643.1 2910.19,2640.12 2906.43,2637.82 2902.53,2636.15 2898.26,2635 2893.4,2634.28 2887.74,2633.91 "/>
   <polygon class="fil6 str4" points="2918.21,2646.88 2918.42,2595.55 3264.82,2927.76 3264.61,2979.09 "/>
   <path class="fil6 str4" d="M3264.61 2979.09l1.29 1.73 0.81 2.15 0.27 2.37c1.79,-8.97 4.06,-49.29 -0.86,-55.85l-1.3 -1.73 -0.21 51.33z"/>
   <polygon class="fil6 str4" points="376.59,2979.22 376.81,2927.89 377.25,2925.77 378.68,2923.27 381.06,2920.42 384.37,2917.22 384.15,2968.56 380.84,2971.75 378.46,2974.61 377.03,2977.11 "/>
   <polygon class="fil6 str4" points="384.15,2968.56 384.37,2917.22 739.53,2583.55 739.31,2634.88 "/>
   <polygon class="fil6 str4" points="739.31,2634.88 739.53,2583.55 742.36,2580.79 744.38,2578.77 745.94,2577.37 747.38,2576.47 749.08,2575.97 751.38,2575.77 754.62,2575.73 759.18,2575.75 758.96,2627.09 754.4,2627.06 751.16,2627.1 748.86,2627.31 747.16,2627.8 745.72,2628.7 744.17,2630.1 742.15,2632.13 "/>
   <path class="fil6 str4" d="M758.96 2627.09l2122.06 6.69 6.72 0.13 5.66 0.37 4.86 0.72c1.42,0.39 2.84,0.76 4.27,1.15l3.9 1.67 3.76 2.3 3.85 2.98 4.17 3.78 346.4 332.21c0.43,0.58 0.87,1.16 1.29,1.73l0.81 2.15 0.27 2.37 -0.3 2.39 -0.91 2.19 -1.56 1.82 -2.24 1.23 -2.96 0.45 -2873.51 -10.01 -3.89 -0.36 -2.76 -0.83 -1.66 -1.29 -0.6 -1.71 0.44 -2.11 1.43 -2.5 2.38 -2.86 3.31 -3.19 355.16 -333.68 2.84 -2.75 2.02 -2.03 1.55 -1.4 1.44 -0.9 1.7 -0.49 2.3 -0.21 3.24 -0.04 4.56 0.03z"/>
   <path class="fil7 str3" d="M1638.93 2882.3l373.9 0 7.63 55.01c-131.76,0 -263.51,0 -395.27,0 4.58,-18.34 9.16,-36.67 13.74,-55.01zm-185.67 -129.71l717.41 0 72.55 93.71 -844.86 0 54.9 -93.71z"/>
   <path class="fil8 str5" d="M823.23 1130.44l1990.61 2.55c74.02,0.92 84.14,6.67 83.75,85.08l-6.03 1180.62c0.8,62.8 -7.84,74.34 -55.27,74.14l-2004.96 -8.48c-59.28,-2.49 -67.74,-10.26 -67.81,-85.62l-1.32 -1156.01c2.53,-88 11.09,-92.33 61.03,-92.28z"/>
   <path class="fil5 str3" d="M759.18 2575.75l2122.06 6.69c19.49,0.07 25.47,1.89 37.18,13.11l346.4 332.21c4.11,3.88 3.29,14.35 -5.59,14.32l-2873.51 -10c-11.92,-0.31 -11.38,-5.92 -1.35,-14.86l355.16 -333.67c8.95,-8.42 5.44,-7.85 19.65,-7.8z"/>
   <polygon class="fil9 str6" points="758.96,2627.09 759.18,2575.75 2881.24,2582.44 2881.02,2633.78 "/>
   <polygon class="fil6 str6" points="2881.02,2633.78 2881.24,2582.44 2887.96,2582.57 2893.62,2582.94 2898.48,2583.67 2902.74,2584.81 2906.65,2586.49 2910.41,2588.78 2914.26,2591.76 2918.42,2595.55 2918.21,2646.88 2914.04,2643.1 2910.19,2640.12 2906.43,2637.82 2902.53,2636.15 2898.26,2635 2893.4,2634.28 2887.74,2633.91 "/>
   <polygon class="fil9 str6" points="2918.21,2646.88 2918.42,2595.55 3264.82,2927.76 3264.61,2979.09 "/>
   <path class="fil6 str4" d="M3264.61 2979.09l1.29 1.73 0.81 2.15 0.27 2.37c1.79,-8.97 4.06,-49.29 -0.86,-55.85l-1.3 -1.73 -0.21 51.33z"/>
   <polygon class="fil6 str6" points="376.59,2979.22 376.81,2927.89 377.25,2925.77 378.68,2923.27 381.06,2920.42 384.37,2917.22 384.15,2968.56 380.84,2971.75 378.46,2974.61 377.03,2977.11 "/>
   <polygon class="fil9 str6" points="384.15,2968.56 384.37,2917.22 739.53,2583.55 739.31,2634.88 "/>
   <polygon class="fil6 str6" points="739.31,2634.88 739.53,2583.55 742.36,2580.79 744.38,2578.77 745.94,2577.37 747.38,2576.47 749.08,2575.97 751.38,2575.77 754.62,2575.73 759.18,2575.75 758.96,2627.09 754.4,2627.06 751.16,2627.1 748.86,2627.31 747.16,2627.8 745.72,2628.7 744.17,2630.1 742.15,2632.13 "/>
   <path class="fil10 str6" d="M758.96 2627.09l2122.06 6.69 6.72 0.13 5.66 0.37 4.86 0.72c1.42,0.39 2.84,0.76 4.27,1.15l3.9 1.67 3.76 2.3 3.85 2.98 4.17 3.78 346.4 332.21c0.43,0.58 0.87,1.16 1.29,1.73l0.81 2.15 0.27 2.37 -0.3 2.39 -0.91 2.19 -1.56 1.82 -2.24 1.23 -2.96 0.45 -2873.51 -10.01 -3.89 -0.36 -2.76 -0.83 -1.66 -1.29 -0.6 -1.71 0.44 -2.11 1.43 -2.5 2.38 -2.86 3.31 -3.19 355.16 -333.68 2.84 -2.75 2.02 -2.03 1.55 -1.4 1.44 -0.9 1.7 -0.49 2.3 -0.21 3.24 -0.04 4.56 0.03z"/>
   <path class="fil11 str7" d="M1638.93 2882.3l373.9 0 7.63 55.01c-131.76,0 -263.51,0 -395.27,0 4.58,-18.34 9.16,-36.67 13.74,-55.01zm-185.67 -129.71l717.41 0 72.55 93.71 -844.86 0 54.9 -93.71z"/>
   <rect class="fil1 str8" x="8283.38" y="1446.78" width="270.48" height="274.46"/>
   <rect class="fil1 str9" x="8561.87" y="1494.48" width="143.2" height="179"/>
   <path class="fil0 str10" d="M1543.06 1445.95c107.32,82.41 206.53,163.27 319.77,248.83 46.26,34.98 50.18,64.24 42.13,96.41 -8.92,35.56 -36.63,72.42 -86.51,91.66 -25.17,9.72 -45.97,-3.49 -67.85,-20.52l-335.36 -260.96c-59.42,-46.26 68.52,-200.93 127.82,-155.42z"/>
   <polyline class="fil1 str11" points="2186.74,2086.21 1876.09,1844.17 1895.03,1819.85 2205.55,2061.83 "/>
   <path class="fil1 str11" d="M2173.83 2087.31l3.85 -4.71 1.73 -2.1m19.49 -23.84l10.62 -13.03 61.91 72.02c12.25,14.24 -5.52,34.42 -21.05,25.76l-41.48 -23.13c-13.83,-7.7 -27.64,-15.41 -41.47,-23.12l6.4 -7.85"/>
   <rect class="fil12 str12" transform="matrix(1.56371 -1.98165 1.98165 1.56371 1478.53 1586.85)" width="13.5" height="132.03"/>
   <rect class="fil13 str12" transform="matrix(1.56371 -1.98165 1.98165 1.56371 1521.16 1532.15)" width="13.5" height="132.03"/>
  </g>
 </g>
</svg>
